<svg width="14" height="14" viewBox="0 0 14 14" fill="none" xmlns="http://www.w3.org/2000/svg">
<path fill-rule="evenodd" clip-rule="evenodd" d="M7 13C10.3137 13 13 10.3137 13 7C13 3.68629 10.3137 1 7 1C3.68629 1 1 3.68629 1 7C1 10.3137 3.68629 13 7 13ZM7 14C10.866 14 14 10.866 14 7C14 3.13401 10.866 0 7 0C3.13401 0 0 3.13401 0 7C0 10.866 3.13401 14 7 14ZM7 6C7.27614 6 7.5 6.22386 7.5 6.5V10.4062C7.5 10.6824 7.27614 10.9062 7 10.9062C6.72386 10.9062 6.5 10.6824 6.5 10.4062V6.5C6.5 6.22386 6.72386 6 7 6ZM7 3.5C6.72386 3.5 6.5 3.72386 6.5 4C6.5 4.27614 6.72386 4.5 7 4.5H7.00667C7.28281 4.5 7.50667 4.27614 7.50667 4C7.50667 3.72386 7.28281 3.5 7.00667 3.5H7Z" fill="#222222" fill-opacity="0.5"/>
</svg>
