<svg width="14" height="14" viewBox="0 0 14 14" fill="none" xmlns="http://www.w3.org/2000/svg">
<path fill-rule="evenodd" clip-rule="evenodd" d="M9.20136 5.24438C8.91809 5.20106 8.67258 5.01274 8.54393 4.74008L7 1.46785L5.45607 4.74008C5.32742 5.01274 5.08191 5.20106 4.79864 5.24438L1.35291 5.77127L3.83483 8.30025C4.04606 8.51549 4.14266 8.82897 4.09234 9.13591L3.50592 12.7129L6.5989 11.0112C6.85055 10.8728 7.14945 10.8728 7.4011 11.0112L10.4941 12.7129L9.90766 9.13591C9.85734 8.82897 9.95394 8.51549 10.1652 8.30025L12.6471 5.77127L9.20136 5.24438ZM13.2505 5.15641L13.2502 5.15677L13.2505 5.15641ZM7.36486 0.694563C7.36495 0.694378 7.36503 0.694193 7.36512 0.694008L7 0.497998L7.36512 0.694009L7.36486 0.694563ZM9.32553 4.32049L7.41647 0.27442C7.33706 0.106114 7.17602 0 7 0C6.82398 0 6.66294 0.106114 6.58353 0.27442L4.67447 4.32049L0.400747 4.974C0.223659 5.00107 0.0766008 5.13423 0.0221552 5.3168C-0.0322903 5.49936 0.0154585 5.69921 0.145082 5.83129L3.23042 8.97513L2.50278 13.4135C2.47213 13.6004 2.54293 13.7899 2.68554 13.9025C2.82815 14.0151 3.01798 14.0315 3.17557 13.9448L7 11.8407L10.8244 13.9448C10.982 14.0315 11.1719 14.0151 11.3145 13.9025C11.4571 13.7899 11.5279 13.6004 11.4972 13.4135L10.7696 8.97513L13.8549 5.83129C13.9845 5.69921 14.0323 5.49936 13.9778 5.3168C13.9234 5.13423 13.7763 5.00107 13.5993 4.974L9.32553 4.32049Z" fill="#222222"/>
</svg>
