<svg width="16" height="16" viewBox="0 0 16 16" fill="none" xmlns="http://www.w3.org/2000/svg">
<path fill-rule="evenodd" clip-rule="evenodd" d="M3.00001 2.00001L3 6.79404L9.09447 12.9363C9.16421 13.006 9.24741 13.0618 9.33848 13.0995C9.42974 13.1374 9.52757 13.1568 9.62636 13.1568C9.72515 13.1568 9.82297 13.1374 9.91423 13.0995C10.0055 13.0617 10.0884 13.0062 10.1582 12.9363L13.9382 9.15518C14.0779 9.01431 14.1569 8.82339 14.1569 8.62485C14.1569 8.42661 14.0786 8.23644 13.9393 8.09562L13.9382 8.09451L7.79408 2L3.00001 2.00001ZM2.50001 1.00001L8 1C8.13191 1 8.25847 1.05212 8.35212 1.14502L14.6475 7.3896C14.9738 7.7179 15.1569 8.16199 15.1569 8.62485C15.1569 9.08771 14.9737 9.53179 14.6475 9.86009L14.6464 9.86113L10.8658 13.6429C10.7031 13.8058 10.5099 13.9351 10.2973 14.0233C10.0846 14.1114 9.85659 14.1568 9.62636 14.1568C9.39612 14.1568 9.16814 14.1114 8.95546 14.0233C8.74278 13.9351 8.54957 13.8058 8.38687 13.6429L8.38574 13.6418L2.14507 7.35218C2.05214 7.25852 2 7.13194 2 7L2.00001 1.5C2.00001 1.22386 2.22387 1.00001 2.50001 1.00001ZM0.5 3C0.776142 3 1 3.22386 1 3.5V7.79396L7.53308 14.3749L7.53357 14.3754C7.6033 14.4451 7.68605 14.5004 7.7771 14.5381C7.86836 14.576 7.96618 14.5954 8.06497 14.5954C8.16376 14.5954 8.26158 14.576 8.35284 14.5381C8.60793 14.4324 8.90045 14.5534 9.00622 14.8085C9.11199 15.0636 8.99095 15.3561 8.73587 15.4619C8.52318 15.5501 8.29521 15.5954 8.06497 15.5954C7.83474 15.5954 7.60676 15.5501 7.39407 15.4619C7.18139 15.3737 6.98818 15.2444 6.82549 15.0815L6.82444 15.0805L0.145159 8.35226C0.0521789 8.2586 0 8.13198 0 8V3.5C0 3.22386 0.223858 3 0.5 3ZM6 4.5C6 4.77614 5.77614 5 5.5 5C5.22386 5 5 4.77614 5 4.5C5 4.22386 5.22386 4 5.5 4C5.77614 4 6 4.22386 6 4.5ZM7 4.5C7 5.32843 6.32843 6 5.5 6C4.67157 6 4 5.32843 4 4.5C4 3.67157 4.67157 3 5.5 3C6.32843 3 7 3.67157 7 4.5Z" fill="#222222" fill-opacity="0.32"/>
</svg>
