<svg width="16" height="16" viewBox="0 0 16 16" fill="none" xmlns="http://www.w3.org/2000/svg" >
    <g clip-path="url(#clip0_948_724)">
        <path fill-rule="evenodd" clip-rule="evenodd" d="M1.5 6.5C1.5 3.73858 3.73858 1.5 6.5 1.5C9.26142 1.5 11.5 3.73858 11.5 6.5C11.5 9.26142 9.26142 11.5 6.5 11.5C3.73858 11.5 1.5 9.26142 1.5 6.5ZM6.5 0.5C3.18629 0.5 0.5 3.18629 0.5 6.5C0.5 9.81371 3.18629 12.5 6.5 12.5C7.97685 12.5 9.32907 11.9664 10.3744 11.0815L14.6464 15.3536C14.8417 15.5488 15.1583 15.5488 15.3536 15.3536C15.5488 15.1583 15.5488 14.8417 15.3536 14.6465L11.0815 10.3744C11.9664 9.32909 12.5 7.97686 12.5 6.5C12.5 3.18629 9.81371 0.5 6.5 0.5Z"  fill="black" />
    </g>
    <defs>
        <clipPath id="clip0_948_724">
            <rect width="16" height="16" fill="white" />
        </clipPath>
    </defs>
</svg>