<svg width="16" height="16" viewBox="0 0 16 16" fill="none" xmlns="http://www.w3.org/2000/svg">
<path fill-rule="evenodd" clip-rule="evenodd" d="M6 4.25C6 3.00736 7.00736 2 8.25 2C9.49264 2 10.5 3.00736 10.5 4.25C10.5 5.49264 9.49264 6.5 8.25 6.5C7.00736 6.5 6 5.49264 6 4.25ZM8.25 1C6.45507 1 5 2.45507 5 4.25C5 6.04493 6.45507 7.5 8.25 7.5C10.0449 7.5 11.5 6.04493 11.5 4.25C11.5 2.45507 10.0449 1 8.25 1ZM6 8.5C5.15032 8.5 3.37644 8.9507 2.83223 9.67631C2.29009 10.3992 2 11.356 2 12.3333V13C2 13.8284 2.67157 14.5 3.5 14.5H12.5C13.3284 14.5 14 13.8284 14 13V12.3333C14 11.356 13.7099 10.3992 13.1678 9.67631C12.6236 8.9507 10.8497 8.5 10 8.5H6ZM3.63223 10.2763C4.0257 9.75168 5.5236 9.5 6 9.5H10C10.4764 9.5 11.9743 9.75168 12.3678 10.2763C12.7633 10.8037 13 11.5426 13 12.3333V13C13 13.2761 12.7761 13.5 12.5 13.5H3.5C3.22386 13.5 3 13.2761 3 13V12.3333C3 11.5426 3.2367 10.8037 3.63223 10.2763Z" fill="#222222" fill-opacity="0.32"/>
</svg>
