<svg width="16" height="16" viewBox="0 0 16 16" fill="none" xmlns="http://www.w3.org/2000/svg">
<path fill-rule="evenodd" clip-rule="evenodd" d="M6 3C6 3.27637 5.77637 3.5 5.5 3.5C5.22363 3.5 5 3.27637 5 3V0.5C5 0.223633 5.22363 0 5.5 0C5.77637 0 6 0.223633 6 0.5V3ZM5.66768 5.03824L15.7094 9.38355C15.9003 9.46541 16.0168 9.66099 15.998 9.86776C15.9793 10.0745 15.8292 10.2457 15.6266 10.2916L11.2994 11.2993L10.2917 15.6266C10.2459 15.8292 10.0747 15.9794 9.86789 15.9981C9.85294 15.9995 9.83841 16 9.82439 16C9.63398 16 9.45995 15.8868 9.38368 15.7095L5.03845 5.66748C4.9617 5.48735 5.00194 5.2787 5.14043 5.14021C5.27891 5.00173 5.48755 4.96197 5.66768 5.03824ZM9.6752 13.8651L6.47921 6.47902L13.8651 9.67508L11.0726 10.3254C10.7016 10.4118 10.4119 10.7015 10.3255 11.0725L9.6752 13.8651ZM3.5 5.5C3.5 5.22363 3.27637 5 3 5H0.5C0.223633 5 0 5.22363 0 5.5C0 5.77637 0.223633 6 0.5 6H3C3.27637 6 3.5 5.77637 3.5 5.5ZM7.62131 4.08581C7.42589 4.28123 7.10962 4.28123 6.9142 4.08581C6.71878 3.89039 6.71878 3.57413 6.9142 3.37871L8.68197 1.61094C8.87739 1.41552 9.19366 1.41552 9.38908 1.61094C9.5845 1.80636 9.5845 2.12262 9.38908 2.31805L7.62131 4.08581ZM4.0858 4.08581C4.28122 3.89039 4.28122 3.57413 4.0858 3.37871L2.31803 1.61094C2.12261 1.41552 1.80634 1.41552 1.61092 1.61094C1.4155 1.80636 1.4155 2.12262 1.61092 2.31805L3.37869 4.08581C3.57411 4.28123 3.89038 4.28123 4.0858 4.08581ZM3.37869 6.91419C3.57411 6.71877 3.89038 6.71877 4.0858 6.91419C4.28122 7.10961 4.28122 7.42587 4.0858 7.62129L2.31803 9.38906C2.12261 9.58448 1.80634 9.58448 1.61092 9.38906C1.4155 9.19364 1.4155 8.87738 1.61092 8.68195L3.37869 6.91419Z" fill="#222222" fill-opacity="0.32"/>
</svg>
