<svg width="16" height="16" viewBox="0 0 16 16" fill="none" xmlns="http://www.w3.org/2000/svg">
    <g clip-path="url(#clip0_824_11604)">
        <path
                fill-rule="evenodd"
                clip-rule="evenodd"
                d="M1.83333 1C1.3731 1 1 1.3731 1 1.83333V14.1667C1 14.6269 1.3731 15 1.83333 15H14.1667C14.6269 15 15 14.6269 15 14.1667V1.83333C15 1.3731 14.6269 1 14.1667 1H1.83333ZM0 1.83333C0 0.820811 0.820811 0 1.83333 0H14.1667C15.1792 0 16 0.820811 16 1.83333V14.1667C16 15.1792 15.1792 16 14.1667 16H1.83333C0.820811 16 0 15.1792 0 14.1667V1.83333Z"
                fill="inherit"
        />
        <path
                fill-rule="evenodd"
                clip-rule="evenodd"
                d="M5.5 0C5.77614 0 6 0.223858 6 0.5V15.5C6 15.7761 5.77614 16 5.5 16C5.22386 16 5 15.7761 5 15.5V0.5C5 0.223858 5.22386 0 5.5 0Z"
                fill="inherit"
        />
        <path
                d="M2 3C2 2.44772 2.44772 2 3 2C3.55228 2 4 2.44772 4 3V13C4 13.5523 3.55228 14 3 14C2.44772 14 2 13.5523 2 13V3Z"
                fill="inherit"
        />
    </g>
    <defs>
        <clipPath id="clip0_824_11604">
            <rect width="16" height="16" fill="white" />
        </clipPath>
    </defs>
</svg>